<svg width="27" height="28" viewBox="0 0 27 28" fill="none" xmlns="http://www.w3.org/2000/svg">
<g clip-path="url(#clip0_1393_2970)">
<path fill-rule="evenodd" clip-rule="evenodd" d="M13.5112 0.885742C6.03984 0.885742 0 6.97011 0 14.4973C0 20.5142 3.86993 25.6074 9.23856 27.41C9.90978 27.5455 10.1556 27.1171 10.1556 26.7568C10.1556 26.4412 10.1335 25.3596 10.1335 24.2326C6.37504 25.044 5.59236 22.61 5.59236 22.61C4.98835 21.0325 4.0934 20.627 4.0934 20.627C2.86325 19.7932 4.183 19.7932 4.183 19.7932C5.54756 19.8834 6.26358 21.1904 6.26358 21.1904C7.47133 23.2635 9.4175 22.6777 10.2004 22.3171C10.3122 21.4382 10.6703 20.8298 11.0506 20.4918C8.05294 20.1762 4.89902 19.0044 4.89902 13.776C4.89902 12.2887 5.43555 11.0718 6.28571 10.1254C6.15157 9.78745 5.68169 8.38998 6.42012 6.51959C6.42012 6.51959 7.56093 6.15895 10.1332 7.91678C11.2345 7.61883 12.3703 7.46726 13.5112 7.46599C14.652 7.46599 15.8149 7.6239 16.8888 7.91678C19.4614 6.15895 20.6022 6.51959 20.6022 6.51959C21.3406 8.38998 20.8705 9.78745 20.7364 10.1254C21.6089 11.0718 22.1233 12.2887 22.1233 13.776C22.1233 19.0044 18.9694 20.1536 15.9493 20.4918C16.4416 20.9199 16.8664 21.7311 16.8664 23.0157C16.8664 24.841 16.8443 26.306 16.8443 26.7565C16.8443 27.1171 17.0904 27.5455 17.7614 27.4103C23.13 25.6071 26.9999 20.5142 26.9999 14.4973C27.0221 6.97011 20.9601 0.885742 13.5112 0.885742Z" fill="#373737"/>
</g>
<defs>
<clipPath id="clip0_1393_2970">
<rect width="27" height="27" fill="white" transform="translate(0 0.885742)"/>
</clipPath>
</defs>
</svg>
