<svg width="25" height="23" viewBox="0 0 25 23" fill="none" xmlns="http://www.w3.org/2000/svg">
<path d="M15.6784 4.10681C15.9492 5.26193 16.9802 6.12243 18.2113 6.12243C19.6486 6.12243 20.8138 4.95013 20.8138 3.50409C20.8138 2.05804 19.6486 0.885742 18.2113 0.885742C16.9546 0.885742 15.9065 1.78185 15.6625 2.97379C13.5578 3.20089 11.9143 4.99678 11.9143 7.17321C11.9143 7.17812 11.9143 7.1818 11.9143 7.18671C9.62543 7.28369 7.53538 7.9392 5.87604 8.97401C5.25988 8.49404 4.48633 8.20803 3.6469 8.20803C1.6325 8.20803 0 9.85048 0 11.8772C0 13.3477 0.858955 14.6146 2.0998 15.2001C2.2206 19.4597 6.83382 22.8857 12.5085 22.8857C18.1833 22.8857 22.8026 19.456 22.9173 15.1927C24.1484 14.6035 25 13.3404 25 11.8784C25 9.85171 23.3675 8.20926 21.3531 8.20926C20.5173 8.20926 19.7474 8.49282 19.1325 8.9691C17.4585 7.92692 15.3453 7.27141 13.0332 7.18426C13.0332 7.18058 13.0332 7.17812 13.0332 7.17444C13.0332 5.61546 14.185 4.32163 15.6784 4.10927V4.10681ZM5.72962 14.2058C5.79063 12.8751 6.66911 11.8538 7.69034 11.8538C8.71157 11.8538 9.49243 12.9328 9.43143 14.2635C9.37042 15.5941 8.60786 16.0778 7.58541 16.0778C6.56296 16.0778 5.66862 15.5365 5.72962 14.2058ZM17.328 11.8538C18.3504 11.8538 19.2289 12.8751 19.2887 14.2058C19.3497 15.5365 18.4541 16.0778 17.4329 16.0778C16.4117 16.0778 15.6479 15.5954 15.5869 14.2635C15.5259 12.9328 16.3055 11.8538 17.328 11.8538ZM16.1127 17.2845C16.3043 17.3041 16.4263 17.5042 16.3519 17.6834C15.7235 19.1945 14.2399 20.2563 12.5085 20.2563C10.7772 20.2563 9.29478 19.1945 8.6652 17.6834C8.59078 17.5042 8.71279 17.3041 8.90434 17.2845C10.0268 17.1703 11.2408 17.1077 12.5085 17.1077C13.7762 17.1077 14.989 17.1703 16.1127 17.2845Z" fill="#373737"/>
</svg>
