<svg width="27" height="27" viewBox="0 0 27 27" fill="none" xmlns="http://www.w3.org/2000/svg">
<g id="Frame 2131327396">
<g clip-path="url(#clip0_1393_27412)">
<rect width="27" height="27" rx="13.5" fill="white"/>
<path id="Arrow 2" d="M-3 -2.5C-2.72386 -2.5 -2.5 -2.72386 -2.5 -3L-2.5 -7.5C-2.5 -7.77614 -2.72386 -8 -3 -8C-3.27614 -8 -3.5 -7.77614 -3.5 -7.5V-3.5H-7.5C-7.77614 -3.5 -8 -3.27614 -8 -3C-8 -2.72386 -7.77614 -2.5 -7.5 -2.5L-3 -2.5ZM-10.3536 -9.64645L-3.35355 -2.64645L-2.64645 -3.35355L-9.64645 -10.3536L-10.3536 -9.64645Z" fill="black"/>
<path id="Arrow 1" d="M17 17.5C17.2761 17.5 17.5 17.2761 17.5 17V12.5C17.5 12.2239 17.2761 12 17 12C16.7239 12 16.5 12.2239 16.5 12.5V16.5H12.5C12.2239 16.5 12 16.7239 12 17C12 17.2761 12.2239 17.5 12.5 17.5H17ZM9.64645 10.3536L16.6464 17.3536L17.3536 16.6464L10.3536 9.64645L9.64645 10.3536Z" fill="black"/>
</g>
<rect x="0.5" y="0.5" width="26" height="26" rx="13" stroke="white"/>
</g>
<defs>
<clipPath id="clip0_1393_27412">
<rect width="27" height="27" rx="13.5" fill="white"/>
</clipPath>
</defs>
</svg>
