<svg width="337" height="134" viewBox="0 0 337 134" fill="none" xmlns="http://www.w3.org/2000/svg">
<path d="M249.149 117.867C246.361 113.181 244.967 110.835 243.296 110.746C242.857 110.723 242.418 110.793 242.008 110.952C240.451 111.554 239.855 114.218 238.668 119.543C237.994 122.57 237.658 124.083 236.754 125.221C236.498 125.54 236.217 125.831 235.91 126.094C234.807 127.037 233.303 127.419 230.295 128.182C225.204 129.477 222.66 130.122 222.108 131.736C221.994 132.071 221.937 132.423 221.938 132.777C221.942 134.486 224.121 135.924 228.477 138.81L229.685 139.611C231.723 140.96 232.738 141.634 233.415 142.569C233.821 143.13 234.133 143.756 234.339 144.419C234.681 145.522 234.61 146.749 234.469 149.2L234.418 150.074C234.166 154.47 234.038 156.668 234.786 157.616C235.117 158.037 235.548 158.365 236.039 158.572C236.529 158.778 237.063 158.856 237.591 158.797C238.783 158.668 240.231 157.028 243.132 153.745C245.04 151.583 245.994 150.503 247.157 149.955C248.22 149.454 249.402 149.265 250.568 149.409C251.844 149.567 253.09 150.295 255.577 151.754C259.353 153.967 261.242 155.076 262.418 154.83C262.937 154.72 263.42 154.48 263.821 154.13C264.222 153.78 264.528 153.333 264.711 152.831C265.126 151.696 264.319 149.648 262.708 145.55L262.388 144.735C261.489 142.451 261.04 141.307 261.02 140.152C261.008 139.458 261.11 138.766 261.321 138.106C261.672 137.007 262.427 136.049 263.943 134.133L264.84 132.995C268.08 128.897 269.698 126.849 269.171 125.224C269.062 124.887 268.898 124.57 268.685 124.288C267.658 122.925 265.036 123.107 259.799 123.464C256.703 123.677 255.155 123.783 253.816 123.234C253.441 123.08 253.081 122.889 252.741 122.665C251.524 121.865 250.734 120.532 249.149 117.867Z" fill="#FFE99A"/>
<path d="M273.317 -2.30399C271.042 -4.48728 269.903 -5.5806 268.958 -5.37278C268.709 -5.31818 268.476 -5.21153 268.272 -5.05974C267.496 -4.48437 267.574 -2.9072 267.732 0.243974C267.822 2.03515 267.868 2.93036 267.54 3.70433C267.446 3.92151 267.334 4.12703 267.203 4.3209C266.733 5.01643 265.954 5.46074 264.394 6.34936C261.756 7.85526 260.436 8.60616 260.378 9.5913C260.366 9.79543 260.388 10.0004 260.443 10.1977C260.708 11.1499 262.144 11.6161 265.017 12.5543L265.814 12.815C267.157 13.253 267.828 13.4727 268.349 13.8894C268.662 14.14 268.932 14.4405 269.149 14.7787C269.509 15.3412 269.659 16.036 269.957 17.4239L270.063 17.919C270.6 20.4086 270.867 21.6538 271.43 22.0673C271.679 22.2506 271.97 22.3675 272.275 22.4071C272.581 22.4467 272.89 22.4078 273.175 22.2938C273.82 22.038 274.375 20.9008 275.486 18.624C276.217 17.1249 276.583 16.3761 277.147 15.8913C277.662 15.4484 278.292 15.161 278.964 15.0621C279.7 14.9539 280.507 15.1676 282.118 15.5982C284.564 16.2502 285.788 16.5779 286.406 16.2597C286.678 16.1187 286.91 15.9101 287.08 15.6534C287.25 15.3968 287.351 15.1004 287.376 14.7921C287.433 14.0957 286.668 13.0778 285.139 11.0412L284.834 10.6364C283.982 9.50127 283.555 8.93287 283.366 8.29214C283.253 7.90669 283.203 7.50559 283.219 7.10491C283.246 6.43838 283.519 5.78821 284.069 4.48637L284.394 3.7139C285.569 0.930768 286.156 -0.460421 285.612 -1.28546C285.5 -1.45654 285.359 -1.60759 285.197 -1.73231C284.415 -2.33367 282.981 -1.82866 280.116 -0.823462C278.423 -0.228151 277.576 0.0695066 276.745 -0.0306359C276.512 -0.0587841 276.282 -0.109583 276.059 -0.182323C275.257 -0.440831 274.611 -1.06213 273.317 -2.30399Z" fill="#FFE99A"/>
<path d="M10.895 104.124C8.5849 99.1358 7.42965 96.6384 5.76274 96.3763C5.32483 96.3075 4.87759 96.3324 4.45004 96.4495C2.82556 96.8918 1.95182 99.5023 0.210464 104.72C-0.7796 107.685 -1.27305 109.168 -2.29716 110.216C-2.58679 110.51 -2.89924 110.772 -3.2345 111.004C-4.43846 111.836 -5.98631 112.063 -9.08202 112.517C-14.3219 113.288 -16.9405 113.671 -17.6606 115.234C-17.8095 115.557 -17.9036 115.904 -17.9389 116.26C-18.1124 117.974 -16.0759 119.642 -12.0056 122.988L-10.8777 123.916C-8.97365 125.479 -8.02479 126.261 -7.44322 127.268C-7.09383 127.874 -6.84535 128.533 -6.70773 129.22C-6.47949 130.362 -6.67722 131.585 -7.07283 134.028L-7.21418 134.899C-7.92269 139.282 -8.27852 141.473 -7.62611 142.502C-7.33764 142.958 -6.93946 143.332 -6.46889 143.59C-5.99833 143.848 -5.47078 143.981 -4.9357 143.977C-3.72691 143.97 -2.1041 142.476 1.14452 139.483C3.28205 137.513 4.35091 136.529 5.5741 136.099C6.69202 135.707 7.89689 135.64 9.05148 135.905C10.3148 136.196 11.4896 137.055 13.8329 138.776C17.3905 141.386 19.1695 142.694 20.3749 142.569C20.9068 142.513 21.4159 142.322 21.8542 142.013C22.2926 141.703 22.6461 141.287 22.8814 140.802C23.4155 139.707 22.8184 137.569 21.6273 133.292L21.3899 132.442C20.7253 130.058 20.3929 128.864 20.4928 127.704C20.5533 127.006 20.727 126.323 21.0069 125.683C21.473 124.617 22.3291 123.735 24.0476 121.97L25.0654 120.921C28.7389 117.148 30.5741 115.261 30.2143 113.576C30.1398 113.227 30.0077 112.892 29.8237 112.587C28.9344 111.114 26.2864 111.025 20.9964 110.84C17.8694 110.733 16.3059 110.68 15.0203 109.99C14.6596 109.797 14.3183 109.568 14.0011 109.308C12.8637 108.38 12.2085 106.961 10.895 104.124Z" fill="#FFE99A"/>
<path d="M336.442 65.2653C333.508 61.9741 332.04 60.3261 330.699 60.5129C330.347 60.562 330.01 60.6853 329.709 60.8747C328.565 61.5923 328.502 63.7994 328.38 68.2095C328.31 70.7162 328.277 71.9692 327.735 73.0124C327.581 73.3049 327.402 73.5792 327.199 73.8353C326.468 74.7538 325.333 75.2883 323.062 76.3574C319.22 78.1695 317.299 79.0727 317.11 80.4397C317.071 80.7229 317.08 81.0111 317.135 81.2921C317.401 82.6483 319.353 83.4545 323.256 85.075L324.338 85.5252C326.163 86.2819 327.073 86.6612 327.754 87.2987C328.163 87.6821 328.507 88.1304 328.773 88.6254C329.214 89.4487 329.347 90.4336 329.612 92.4009L329.706 93.1027C330.183 96.6316 330.42 98.3965 331.16 99.0342C331.487 99.3168 331.88 99.5115 332.301 99.5999C332.723 99.6884 333.158 99.6677 333.568 99.5399C334.494 99.2534 335.392 97.7286 337.189 94.6756C338.371 92.6652 338.962 91.6612 339.801 91.0468C340.568 90.4854 341.477 90.1534 342.425 90.0885C343.463 90.0178 344.564 90.4035 346.764 91.1792C350.102 92.3542 351.772 92.9441 352.668 92.5678C353.063 92.4009 353.409 92.1353 353.674 91.796C353.939 91.4567 354.113 91.0546 354.181 90.6275C354.336 89.6629 353.38 88.1606 351.47 85.1551L351.09 84.5577C350.025 82.8826 349.492 82.0438 349.298 81.13C349.182 80.5804 349.157 80.0158 349.222 79.459C349.332 78.5327 349.784 77.6561 350.692 75.9011L351.229 74.8597C353.17 71.1078 354.14 69.2323 353.471 68.023C353.333 67.7722 353.154 67.5464 352.941 67.3549C351.916 66.4314 349.863 66.9795 345.759 68.069C343.334 68.7146 342.122 69.0374 340.974 68.8074C340.652 68.7428 340.337 68.647 340.033 68.5212C338.944 68.0736 338.111 67.1372 336.442 65.2653Z" fill="#FFE99A"/>
<path d="M118.247 -9.93388C117.015 -13.0808 116.4 -14.6562 115.387 -14.8792C115.121 -14.9378 114.846 -14.9392 114.579 -14.8833C113.566 -14.6726 112.932 -13.1035 111.669 -9.96739C110.951 -8.18481 110.593 -7.29352 109.925 -6.68842C109.736 -6.51927 109.535 -6.36981 109.321 -6.24004C108.551 -5.77483 107.593 -5.69334 105.676 -5.53037C102.433 -5.25246 100.812 -5.11547 100.311 -4.18368C100.208 -3.99054 100.137 -3.78123 100.102 -3.56447C99.932 -2.51911 101.119 -1.41973 103.492 0.784903L104.149 1.39675C105.259 2.42703 105.812 2.94217 106.131 3.58173C106.323 3.96626 106.451 4.38006 106.51 4.80654C106.607 5.51565 106.44 6.25873 106.106 7.74294L105.987 8.27231C105.388 10.9349 105.088 12.2661 105.45 12.9216C105.61 13.212 105.841 13.4565 106.12 13.6324C106.399 13.8082 106.717 13.9095 107.046 13.9269C107.788 13.968 108.839 13.1116 110.944 11.397C112.329 10.2675 113.022 9.70377 113.788 9.48587C114.489 9.28687 115.231 9.29065 115.929 9.49677C116.693 9.72247 117.382 10.2933 118.756 11.4368C120.841 13.1708 121.884 14.0398 122.628 14.0083C122.956 13.9937 123.276 13.8952 123.556 13.7219C123.837 13.5485 124.069 13.3061 124.232 13.0173C124.6 12.3656 124.314 11.0313 123.743 8.36277L123.629 7.83221C123.31 6.34467 123.151 5.59993 123.255 4.89185C123.318 4.46599 123.45 4.05352 123.646 3.67096C123.972 3.03468 124.53 2.52521 125.65 1.50629L126.314 0.901171C128.709 -1.27722 129.905 -2.36642 129.747 -3.41344C129.715 -3.63055 129.646 -3.84057 129.545 -4.03475C129.054 -4.97159 127.433 -5.1251 124.194 -5.43603C122.279 -5.61852 121.322 -5.70977 120.559 -6.18082C120.345 -6.31305 120.144 -6.46593 119.959 -6.63731C119.296 -7.24918 118.947 -8.14408 118.247 -9.93388Z" fill="#FFE99A"/>
<path d="M26.1855 25.2891C25.0807 23.6039 24.528 22.7601 23.9095 22.7544C23.747 22.7528 23.5862 22.7858 23.4374 22.8512C22.872 23.0986 22.6949 24.092 22.3429 26.0772C22.1427 27.2056 22.0431 27.7697 21.7279 28.2048C21.6386 28.3267 21.5393 28.4386 21.4302 28.5407C21.0381 28.9067 20.489 29.0719 19.3907 29.4023C17.5319 29.9627 16.6028 30.2417 16.4254 30.8469C16.3887 30.9723 16.3731 31.1031 16.3794 31.2339C16.4083 31.8648 17.2361 32.3606 18.8912 33.3559L19.35 33.6322C20.1242 34.0971 20.5101 34.3298 20.7749 34.6639C20.9341 34.8647 21.0595 35.0905 21.1462 35.3322C21.2901 35.734 21.2839 36.1881 21.2712 37.0953L21.2666 37.4188C21.2444 39.046 21.2327 39.8598 21.5244 40.1978C21.6534 40.3476 21.8178 40.4621 22.0023 40.5304C22.1868 40.5987 22.3852 40.6187 22.579 40.5886C23.017 40.5214 23.5254 39.8926 24.5432 38.6335C25.2128 37.8044 25.5477 37.3904 25.9683 37.1691C26.3527 36.9669 26.786 36.8781 27.2189 36.9126C27.6926 36.9504 28.1646 37.199 29.1065 37.6976C30.5364 38.4535 31.2515 38.8326 31.682 38.7228C31.8719 38.6739 32.0462 38.5772 32.1886 38.4416C32.331 38.3061 32.4369 38.1361 32.4963 37.9476C32.6313 37.522 32.3002 36.7785 31.6393 35.2914L31.5077 34.9958C31.139 34.1669 30.9546 33.7519 30.9287 33.3258C30.9132 33.0695 30.9396 32.8126 31.0069 32.5654C31.1188 32.1541 31.382 31.7882 31.9107 31.056L32.2236 30.6214C33.3536 29.0562 33.9181 28.2737 33.6974 27.6821C33.6516 27.5594 33.5859 27.4452 33.5028 27.3444C33.1015 26.8579 32.1364 26.9674 30.2082 27.1837C29.0685 27.3123 28.4987 27.3765 27.9956 27.1953C27.8544 27.1445 27.7184 27.0799 27.5895 27.0026C27.1273 26.727 26.8138 26.2476 26.1855 25.2891Z" fill="#FFE99A"/>
</svg>
