<svg width="337" height="134" viewBox="0 0 337 134" fill="none" xmlns="http://www.w3.org/2000/svg">
<path fill-rule="evenodd" clip-rule="evenodd" d="M269.903 -22.9873C265.889 -20.6662 264.524 -15.5732 261.794 -5.38287C259.063 4.80744 257.698 9.9026 260.015 13.9153C262.335 17.9314 267.428 19.2961 277.618 22.0266C287.809 24.757 292.904 26.1223 296.917 23.8034C300.932 21.4893 302.297 16.392 305.028 6.20171C307.758 -3.9886 309.124 -9.08376 306.805 -13.0992C304.491 -17.1114 299.393 -18.4772 289.203 -21.2077C279.013 -23.9382 273.918 -25.3034 269.903 -22.9873ZM289.844 -10.7348C290.23 -10.5122 290.51 -10.1458 290.626 -9.71617C290.741 -9.28652 290.681 -8.82874 290.458 -8.4434L279.269 10.9397C279.158 11.1306 279.011 11.2979 278.836 11.432C278.661 11.5661 278.462 11.6645 278.249 11.7214C277.819 11.8365 277.36 11.7759 276.975 11.5531C276.589 11.3303 276.308 10.9635 276.193 10.5333C276.078 10.1032 276.139 9.64499 276.362 9.2595L287.553 -10.1209C287.776 -10.5059 288.142 -10.7869 288.572 -10.902C289.001 -11.0171 289.459 -10.957 289.844 -10.7348ZM291.876 -5.50111C292.261 -5.72327 292.719 -5.7834 293.148 -5.66827C293.578 -5.55315 293.945 -5.2722 294.167 -4.88713L294.498 -4.31644C295.503 -2.57594 296.342 -1.12324 296.853 0.118737C297.391 1.43066 297.666 2.73709 297.293 4.12923C296.92 5.52137 296.028 6.51501 294.906 7.38209C293.843 8.20239 292.391 9.04111 290.648 10.0454L290.078 10.3746C289.887 10.4941 289.673 10.5739 289.451 10.6092C289.228 10.6445 289.001 10.6347 288.782 10.5802C288.563 10.5257 288.358 10.4277 288.178 10.2921C287.998 10.1564 287.847 9.98591 287.734 9.7907C287.621 9.5955 287.549 9.37959 287.522 9.15587C287.494 8.93214 287.512 8.70517 287.574 8.48851C287.637 8.27185 287.742 8.06993 287.884 7.8948C288.026 7.71967 288.201 7.57491 288.4 7.46916L288.87 7.1964C290.739 6.11714 291.992 5.39179 292.855 4.72391C293.681 4.088 293.944 3.65814 294.051 3.26039C294.157 2.86263 294.144 2.35863 293.747 1.39488C293.333 0.38742 292.611 -0.869515 291.532 -2.73884L291.262 -3.2097C291.04 -3.59504 290.979 -4.05281 291.095 -4.48246C291.21 -4.9121 291.491 -5.27848 291.876 -5.50111ZM276.744 -9.55572C277.128 -9.75975 277.576 -9.80674 277.994 -9.68678C278.412 -9.56683 278.767 -9.28929 278.985 -8.91265C279.202 -8.53601 279.265 -8.08967 279.16 -7.66766C279.055 -7.24565 278.79 -6.88093 278.421 -6.65032L277.952 -6.37755C276.083 -5.2983 274.832 -4.57237 273.967 -3.90507C273.141 -3.26916 272.88 -2.83872 272.773 -2.44097C272.666 -2.04321 272.677 -1.53979 273.075 -0.576033C273.491 0.432001 274.211 1.68836 275.29 3.55768L275.562 4.02912C275.677 4.22023 275.752 4.43225 275.784 4.65284C275.816 4.87343 275.803 5.09815 275.748 5.31389C275.692 5.52964 275.593 5.73209 275.458 5.90943C275.323 6.08678 275.154 6.23546 274.961 6.3468C274.768 6.45815 274.555 6.52993 274.334 6.55796C274.113 6.58599 273.888 6.5697 273.673 6.51004C273.459 6.45039 273.258 6.34857 273.083 6.21051C272.908 6.07246 272.762 5.90095 272.654 5.70597L272.325 5.13586C271.318 3.39478 270.479 1.94208 269.969 0.700104C269.431 -0.611822 269.157 -1.91767 269.53 -3.30981C269.903 -4.70195 270.795 -5.69559 271.915 -6.56325C272.978 -7.38355 274.431 -8.22226 276.174 -9.22656L276.744 -9.55572Z" fill="#EFD5FF"/>
<path fill-rule="evenodd" clip-rule="evenodd" d="M280.249 101.698C277.338 107.953 280.022 115.326 285.392 130.078C290.762 144.83 293.448 152.206 299.697 155.12C305.954 158.035 313.327 155.351 328.079 149.98C342.831 144.61 350.207 141.925 353.119 135.672C356.037 129.425 353.351 122.046 347.981 107.294C342.61 92.5419 339.925 85.1658 333.672 82.2502C327.425 79.3354 320.046 82.0217 305.294 87.392C290.542 92.7623 283.166 95.4474 280.249 101.698ZM315.016 99.6102C315.675 99.5529 316.33 99.7596 316.837 100.185C317.345 100.611 317.662 101.22 317.72 101.879L320.626 135.058C320.655 135.385 320.618 135.714 320.52 136.027C320.421 136.339 320.261 136.63 320.05 136.881C319.624 137.388 319.014 137.706 318.354 137.763C317.694 137.821 317.038 137.614 316.531 137.187C316.023 136.761 315.706 136.151 315.648 135.491L312.747 102.315C312.689 101.655 312.896 101 313.322 100.493C313.747 99.9858 314.356 99.6683 315.016 99.6102ZM321.959 104.256C322.239 103.656 322.746 103.192 323.368 102.966C323.99 102.739 324.676 102.769 325.276 103.048L326.167 103.461C328.878 104.725 331.14 105.78 332.823 106.858C334.599 107.997 336.05 109.355 336.783 111.37C337.517 113.385 337.278 115.358 336.651 117.373C336.055 119.28 335 121.542 333.733 124.254L333.319 125.142C333.188 125.451 332.997 125.73 332.755 125.963C332.514 126.196 332.229 126.378 331.915 126.499C331.602 126.619 331.268 126.675 330.933 126.663C330.598 126.652 330.268 126.573 329.964 126.431C329.66 126.289 329.388 126.088 329.164 125.838C328.939 125.589 328.767 125.297 328.658 124.98C328.549 124.663 328.505 124.327 328.528 123.992C328.552 123.658 328.642 123.331 328.795 123.032L329.134 122.299C330.491 119.388 331.4 117.434 331.881 115.884C332.345 114.404 332.299 113.655 332.089 113.079C331.88 112.503 331.433 111.9 330.126 111.065C328.762 110.19 326.809 109.274 323.898 107.916L323.167 107.573C322.567 107.293 322.103 106.786 321.877 106.164C321.65 105.542 321.68 104.856 321.959 104.256ZM300.053 112.23C300.347 111.654 300.854 111.214 301.466 111.003C302.078 110.793 302.747 110.828 303.334 111.101C303.921 111.375 304.378 111.865 304.61 112.469C304.842 113.073 304.831 113.744 304.578 114.34L304.239 115.073C302.882 117.984 301.976 119.937 301.492 121.488C301.028 122.969 301.077 123.716 301.287 124.292C301.496 124.868 301.939 125.472 303.246 126.308C304.614 127.182 306.564 128.099 309.475 129.456L310.209 129.798C310.512 129.933 310.785 130.127 311.012 130.369C311.239 130.611 311.416 130.895 311.532 131.206C311.648 131.516 311.701 131.847 311.688 132.179C311.675 132.51 311.596 132.835 311.455 133.136C311.315 133.437 311.116 133.706 310.871 133.929C310.625 134.152 310.338 134.324 310.025 134.434C309.712 134.545 309.381 134.592 309.049 134.573C308.718 134.554 308.394 134.47 308.096 134.324L307.208 133.91C304.495 132.647 302.232 131.593 300.55 130.515C298.774 129.375 297.326 128.016 296.592 126.001C295.859 123.986 296.098 122.013 296.722 120C297.318 118.092 298.373 115.83 299.639 113.118L300.053 112.23Z" fill="#EFD5FF"/>
<path fill-rule="evenodd" clip-rule="evenodd" d="M174.775 -7.02339C172.798 -5.86734 172.136 -3.34839 170.811 1.69166C169.487 6.73171 168.824 9.25173 169.978 11.2283C171.134 13.2066 173.653 13.8686 178.693 15.1931C183.733 16.5176 186.253 17.1799 188.23 16.0249C190.208 14.8724 190.87 12.3513 192.195 7.31125C193.519 2.2712 194.181 -0.248826 193.027 -2.22679C191.874 -4.20312 189.353 -4.86567 184.313 -6.19021C179.273 -7.51474 176.753 -8.17701 174.775 -7.02339ZM184.654 -1.0186C184.845 -0.909538 184.985 -0.729228 185.043 -0.517273C185.101 -0.30532 185.072 -0.0790565 184.963 0.111815L179.482 9.71278C179.428 9.80733 179.356 9.89031 179.27 9.95697C179.183 10.0236 179.085 10.0727 178.98 10.1013C178.768 10.1592 178.541 10.1304 178.35 10.0212C178.159 9.91208 178.02 9.73155 177.962 9.51936C177.904 9.30716 177.933 9.08068 178.042 8.88974L183.524 -0.709879C183.633 -0.900618 183.813 -1.04027 184.025 -1.09815C184.237 -1.15604 184.464 -1.12742 184.654 -1.0186ZM185.67 1.56181C185.86 1.45115 186.086 1.42037 186.299 1.47621C186.511 1.53206 186.693 1.66997 186.804 1.85964L186.969 2.14075C187.469 2.9981 187.887 3.71367 188.142 4.32594C188.411 4.9727 188.55 5.61736 188.369 6.3059C188.188 6.99444 187.75 7.48738 187.198 7.91834C186.675 8.32605 185.959 8.74379 185.101 9.24401L184.82 9.40795C184.726 9.46744 184.621 9.50737 184.511 9.52535C184.401 9.54332 184.288 9.53899 184.18 9.51259C184.072 9.48619 183.97 9.43828 183.881 9.37171C183.792 9.30514 183.717 9.22128 183.661 9.12512C183.605 9.02897 183.568 8.92249 183.554 8.81204C183.54 8.7016 183.549 8.58944 183.579 8.48228C183.609 8.37511 183.66 8.27512 183.73 8.18827C183.8 8.10143 183.886 8.02951 183.984 7.9768L184.216 7.84095C185.136 7.30341 185.754 6.94214 186.178 6.61019C186.585 6.29412 186.714 6.08116 186.765 5.88443C186.817 5.68771 186.809 5.43878 186.611 4.96367C186.404 4.46702 186.044 3.84786 185.507 2.92706L185.372 2.69512C185.262 2.50531 185.231 2.27933 185.287 2.06683C185.343 1.85434 185.481 1.67269 185.67 1.56181ZM178.186 -0.40505C178.375 -0.506745 178.597 -0.53102 178.803 -0.47276C179.01 -0.414501 179.186 -0.278254 179.295 -0.0927268C179.403 0.0928008 179.435 0.313125 179.384 0.521828C179.333 0.730532 179.203 0.911319 179.022 1.0261L178.79 1.16195C177.87 1.6995 177.253 2.06105 176.828 2.39271C176.421 2.70879 176.293 2.92203 176.242 3.11875C176.19 3.31548 176.197 3.56412 176.395 4.03923C176.603 4.53617 176.961 5.15504 177.499 6.07584L177.635 6.30806C177.692 6.40219 177.729 6.50674 177.746 6.61563C177.762 6.72451 177.756 6.83554 177.729 6.94224C177.702 7.04895 177.654 7.14918 177.588 7.2371C177.522 7.32502 177.438 7.39886 177.343 7.45432C177.248 7.50978 177.143 7.54575 177.034 7.56011C176.925 7.57448 176.814 7.56697 176.708 7.53801C176.601 7.50906 176.502 7.45924 176.415 7.39146C176.329 7.32369 176.256 7.23931 176.202 7.14326L176.038 6.86243C175.537 6.00481 175.119 5.28923 174.864 4.67696C174.595 4.03021 174.457 3.38583 174.638 2.69728C174.819 2.00874 175.257 1.51581 175.808 1.08456C176.331 0.676848 177.047 0.25911 177.905 -0.241107L178.186 -0.40505Z" fill="#EFD5FF"/>
<path fill-rule="evenodd" clip-rule="evenodd" d="M53.2607 -16.2798C50.5404 -13.8203 50.3278 -9.65529 49.9026 -1.32177C49.4774 7.01175 49.2647 11.1785 51.7208 13.8987C54.1802 16.6208 58.3452 16.8333 66.6787 17.2585C75.0123 17.6838 79.179 17.8964 81.8993 15.4386C84.6211 12.9844 84.8338 8.81592 85.2591 0.482397C85.6843 -7.85112 85.8969 -12.0179 83.4392 -14.7399C80.985 -17.46 76.8164 -17.6727 68.4829 -18.0979C60.1494 -18.5232 55.9826 -18.7358 53.2607 -16.2798ZM70.7124 -10.1039C71.0471 -9.99548 71.325 -9.75861 71.4851 -9.44535C71.6453 -9.1321 71.6746 -8.76809 71.5665 -8.43327L66.12 8.41044C66.0662 8.57633 65.9803 8.73001 65.8672 8.86271C65.7541 8.99541 65.6159 9.10453 65.4606 9.18383C65.147 9.344 64.7826 9.37301 64.4475 9.26448C64.1125 9.15596 63.8343 8.91878 63.6741 8.60514C63.514 8.2915 63.485 7.92707 63.5935 7.59204L69.0417 -9.24981C69.1502 -9.58449 69.387 -9.86243 69.7003 -10.0226C70.0135 -10.1827 70.3776 -10.212 70.7124 -10.1039ZM73.1497 -6.39218C73.411 -6.62779 73.7551 -6.75006 74.1064 -6.73213C74.4578 -6.7142 74.7877 -6.55754 75.0236 -6.29656L75.3743 -5.91C76.4396 -4.73015 77.3287 -3.7454 77.9292 -2.86931C78.5626 -1.94369 78.9919 -0.978847 78.9338 0.159632C78.8757 1.29811 78.3504 2.21424 77.6261 3.07058C76.9396 3.88099 75.9548 4.77013 74.7732 5.83532L74.3867 6.18427C74.2587 6.30834 74.107 6.40535 73.9406 6.46952C73.7743 6.53369 73.5968 6.56369 73.4186 6.55775C73.2404 6.55181 73.0652 6.51003 72.9035 6.43493C72.7418 6.35982 72.5969 6.25291 72.4775 6.12058C72.358 5.98826 72.2664 5.83322 72.2081 5.66473C72.1499 5.49623 72.1261 5.31773 72.1384 5.13986C72.1506 4.962 72.1985 4.78842 72.2793 4.62948C72.36 4.47053 72.472 4.32949 72.6085 4.21475L72.9263 3.92612C74.1934 2.78198 75.0427 2.01354 75.5992 1.35424C76.1328 0.725675 76.2655 0.349598 76.2821 0.0243188C76.2987 -0.300961 76.205 -0.688584 75.7381 -1.36821C75.2515 -2.07897 74.485 -2.93162 73.3409 -4.1988L73.0541 -4.51829C72.8185 -4.77956 72.6962 -5.12367 72.7141 -5.47502C72.7321 -5.82638 72.8887 -6.15625 73.1497 -6.39218ZM60.7749 -7.02364C61.0382 -7.24502 61.3772 -7.35556 61.7204 -7.33197C62.0635 -7.30838 62.3842 -7.15251 62.6147 -6.89719C62.8452 -6.64187 62.9676 -6.30704 62.9562 -5.96324C62.9447 -5.61944 62.8002 -5.29352 62.5532 -5.05413L62.2354 -4.76549C60.9682 -3.62136 60.1208 -2.85283 59.5625 -2.19361C59.0288 -1.56505 58.898 -1.18888 58.8814 -0.863603C58.8648 -0.538323 58.9567 -0.15079 59.4236 0.528833C59.9119 1.23968 60.6767 2.09225 61.8208 3.35943L62.1094 3.67901C62.2297 3.80783 62.3232 3.95933 62.3843 4.12467C62.4455 4.29 62.4731 4.46586 62.4655 4.64198C62.458 4.8181 62.4155 4.99096 62.3404 5.15047C62.2653 5.30998 62.1593 5.45294 62.0284 5.57101C61.8975 5.68908 61.7444 5.77991 61.578 5.83818C61.4116 5.89645 61.2353 5.92101 61.0594 5.91041C60.8834 5.89982 60.7113 5.85428 60.5531 5.77647C60.395 5.69865 60.2539 5.59011 60.1381 5.45719L59.7891 5.07071C58.7221 3.89078 57.8329 2.90602 57.2325 2.02993C56.5991 1.10431 56.1715 0.139563 56.2296 -0.998916C56.2877 -2.13739 56.813 -3.05352 57.5356 -3.90995C58.2221 -4.72037 59.2069 -5.6095 60.3885 -6.6747L60.7749 -7.02364Z" fill="#EFD5FF"/>
<path fill-rule="evenodd" clip-rule="evenodd" d="M80.0144 119.3C75.7127 121.252 73.8201 126.28 70.0332 136.339C66.2463 146.399 64.3529 151.429 66.3009 155.729C68.2524 160.033 73.28 161.925 83.3394 165.712C93.3988 169.499 98.4285 171.392 102.729 169.442C107.031 167.497 108.925 162.465 112.712 152.406C116.499 142.346 118.392 137.317 116.443 133.014C114.497 128.714 109.465 126.82 99.4058 123.033C89.3464 119.246 84.3167 117.353 80.0144 119.3ZM99.0096 133.716C99.3778 133.98 99.626 134.38 99.6998 134.827C99.7736 135.274 99.6669 135.732 99.4031 136.101L86.1204 154.636C85.9895 154.818 85.8239 154.973 85.633 155.092C85.4422 155.21 85.2299 155.29 85.0083 155.326C84.5607 155.4 84.1021 155.293 83.7335 155.028C83.3649 154.764 83.1165 154.364 83.0428 153.916C82.9692 153.469 83.0764 153.01 83.3408 152.642L96.6249 134.11C96.8891 133.741 97.2886 133.493 97.7358 133.419C98.1829 133.346 98.6411 133.452 99.0096 133.716ZM100.546 139.226C100.959 139.039 101.429 139.024 101.853 139.183C102.277 139.343 102.621 139.665 102.808 140.077L103.087 140.689C103.932 142.554 104.637 144.111 105.031 145.421C105.445 146.805 105.594 148.157 105.077 149.532C104.559 150.906 103.556 151.824 102.332 152.591C101.172 153.317 99.6149 154.022 97.7476 154.866L97.1367 155.143C96.931 155.245 96.7068 155.305 96.4776 155.318C96.2483 155.332 96.0187 155.299 95.8023 155.222C95.586 155.145 95.3874 155.025 95.2185 154.869C95.0495 154.714 94.9136 154.526 94.8188 154.317C94.724 154.107 94.6724 153.881 94.6669 153.652C94.6614 153.422 94.7022 153.194 94.7869 152.98C94.8716 152.767 94.9984 152.573 95.1598 152.409C95.3212 152.246 95.5138 152.117 95.7262 152.029L96.2293 151.8C98.2325 150.892 99.5757 150.282 100.517 149.691C101.418 149.129 101.728 148.719 101.876 148.327C102.024 147.934 102.061 147.422 101.754 146.405C101.435 145.342 100.829 143.995 99.9214 141.992L99.6946 141.488C99.5079 141.075 99.4927 140.605 99.6523 140.18C99.812 139.756 100.133 139.413 100.546 139.226ZM85.6086 133.602C86.0184 133.434 86.4776 133.431 86.8895 133.594C87.3013 133.758 87.6337 134.075 87.8166 134.478C87.9994 134.882 88.0184 135.341 87.8697 135.758C87.7209 136.176 87.4159 136.519 87.019 136.716L86.5159 136.946C84.5127 137.853 83.1717 138.464 82.2284 139.054C81.3273 139.617 81.0193 140.027 80.8715 140.419C80.7237 140.812 80.6846 141.324 80.9913 142.341C81.312 143.404 81.9164 144.75 82.8239 146.753L83.0527 147.258C83.1499 147.464 83.2053 147.686 83.2155 147.913C83.2258 148.14 83.1908 148.366 83.1125 148.58C83.0343 148.793 82.9144 148.988 82.7598 149.155C82.6052 149.321 82.419 149.455 82.2121 149.548C82.0052 149.642 81.7818 149.693 81.5548 149.7C81.3278 149.706 81.1018 149.667 80.8901 149.585C80.6783 149.503 80.4849 149.38 80.3213 149.222C80.1577 149.065 80.0271 148.877 79.9371 148.668L79.6603 148.057C78.8133 146.191 78.108 144.634 77.7145 143.324C77.2999 141.94 77.1532 140.589 77.6706 139.215C78.1879 137.84 79.1914 136.922 80.4136 136.154C81.5736 135.429 83.1303 134.723 84.9976 133.879L85.6086 133.602Z" fill="#EFD5FF"/>
<path fill-rule="evenodd" clip-rule="evenodd" d="M-17.9856 61.3002C-22.2873 63.2525 -24.1799 68.28 -27.9668 78.3394C-31.7537 88.3988 -33.6471 93.4285 -31.6991 97.7287C-29.7476 102.033 -24.72 103.925 -14.6606 107.712C-4.60118 111.499 0.42852 113.392 4.72948 111.442C9.03096 109.497 10.9252 104.465 14.712 94.4058C18.4989 84.3464 20.3923 79.3167 18.443 75.0136C16.4971 70.7143 11.4652 68.8201 1.40583 65.0332C-8.65357 61.2464 -13.6833 59.3529 -17.9856 61.3002ZM1.00957 75.7161C1.37776 75.9803 1.62602 76.3798 1.69981 76.827C1.7736 77.2741 1.66689 77.7323 1.40311 78.1008L-11.8796 96.6357C-12.0105 96.8182 -12.1761 96.9731 -12.367 97.0916C-12.5578 97.2101 -12.7701 97.2899 -12.9917 97.3264C-13.4393 97.4 -13.8979 97.2928 -14.2665 97.0284C-14.6351 96.764 -14.8835 96.3639 -14.9572 95.9163C-15.0308 95.4687 -14.9236 95.0102 -14.6592 94.6416L-1.37515 76.1096C-1.11092 75.7414 -0.711357 75.4932 -0.264219 75.4194C0.182918 75.3456 0.641061 75.4523 1.00957 75.7161ZM2.54616 81.2257C2.95907 81.0389 3.42922 81.0237 3.85335 81.1834C4.27747 81.343 4.62088 81.6645 4.80814 82.0772L5.08704 82.689C5.93198 84.5541 6.63721 86.1109 7.03078 87.4212C7.44534 88.8051 7.59414 90.1573 7.0768 91.5316C6.55946 92.9058 5.55593 93.8242 4.33162 94.5912C3.17168 95.3167 1.61494 96.0219 -0.25236 96.8661L-0.86331 97.1428C-1.06903 97.2449 -1.2932 97.3045 -1.52245 97.3181C-1.7517 97.3317 -1.98134 97.2989 -2.19766 97.2218C-2.41398 97.1447 -2.61255 97.0248 -2.78154 96.8693C-2.95052 96.7138 -3.08644 96.5258 -3.18121 96.3166C-3.27598 96.1075 -3.32764 95.8813 -3.33311 95.6517C-3.33859 95.4222 -3.29776 95.1938 -3.21307 94.9804C-3.12838 94.7669 -3.00157 94.5727 -2.84019 94.4093C-2.67881 94.2459 -2.48617 94.1167 -2.27377 94.0293L-1.7707 93.7997C0.232518 92.8922 1.57565 92.282 2.51686 91.691C3.41799 91.1287 3.72808 90.7192 3.87589 90.3266C4.0237 89.9339 4.06065 89.4216 3.75397 88.4047C3.43534 87.3419 2.82885 85.9953 1.92137 83.9921L1.69464 83.4877C1.50789 83.0747 1.49267 82.6046 1.65234 82.1805C1.812 81.7563 2.13347 81.4129 2.54616 81.2257ZM-12.3914 75.6024C-11.9816 75.4339 -11.5224 75.4311 -11.1105 75.5945C-10.6987 75.7579 -10.3663 76.0748 -10.1834 76.4784C-10.0006 76.882 -9.98156 77.3409 -10.1303 77.7582C-10.2791 78.1756 -10.5841 78.519 -10.981 78.7159L-11.4841 78.9456C-13.4873 79.8531 -14.8283 80.4641 -15.7716 81.0543C-16.6727 81.6165 -16.9807 82.0268 -17.1285 82.4195C-17.2763 82.8121 -17.3154 83.3237 -17.0087 84.3406C-16.688 85.4042 -16.0836 86.75 -15.1761 88.7532L-14.9473 89.2584C-14.8501 89.4636 -14.7947 89.6862 -14.7845 89.913C-14.7742 90.1399 -14.8092 90.3665 -14.8875 90.5796C-14.9657 90.7928 -15.0856 90.9882 -15.2402 91.1546C-15.3948 91.3209 -15.581 91.4548 -15.7879 91.5484C-15.9948 91.642 -16.2182 91.6934 -16.4452 91.6998C-16.6722 91.7061 -16.8982 91.6671 -17.1099 91.5852C-17.3217 91.5032 -17.5151 91.3799 -17.6787 91.2225C-17.8423 91.065 -17.9729 90.8765 -18.0629 90.6681L-18.3397 90.0571C-19.1867 88.1912 -19.892 86.6344 -20.2855 85.3241C-20.7001 83.9401 -20.8468 82.5888 -20.3294 81.2145C-19.8121 79.8403 -18.8086 78.9219 -17.5864 78.1541C-16.4264 77.4286 -14.8697 76.7233 -13.0024 75.8792L-12.3914 75.6024Z" fill="#EFD5FF"/>
</svg>
