<svg width="25" height="25" viewBox="0 0 25 25" fill="none" xmlns="http://www.w3.org/2000/svg">
<g clip-path="url(#clip0_1393_2969)">
<path d="M12.5 24.8857C19.1274 24.8857 24.5 19.5132 24.5 12.8857C24.5 6.25833 19.1274 0.885742 12.5 0.885742C5.87258 0.885742 0.5 6.25833 0.5 12.8857C0.5 19.5132 5.87258 24.8857 12.5 24.8857Z" fill="#373737"/>
<path fill-rule="evenodd" clip-rule="evenodd" d="M5.93104 12.7587C9.42928 11.2346 11.762 10.2298 12.9292 9.7443C16.2617 8.35819 16.9542 8.11741 17.4055 8.10946C17.5048 8.10771 17.7267 8.13231 17.8705 8.24898C17.9919 8.34748 18.0253 8.48055 18.0413 8.57395C18.0573 8.66735 18.0772 8.88011 18.0614 9.04635C17.8808 10.9438 17.0994 15.5485 16.7018 17.6737C16.5336 18.573 16.2024 18.8745 15.8817 18.904C15.1849 18.9681 14.6557 18.4435 13.9808 18.001C12.9246 17.3087 12.3279 16.8777 11.3028 16.2022C10.118 15.4214 10.886 14.9923 11.5612 14.291C11.7379 14.1075 14.8083 11.3147 14.8677 11.0614C14.8752 11.0297 14.8821 10.9116 14.8119 10.8492C14.7417 10.7869 14.6382 10.8082 14.5635 10.8251C14.4575 10.8492 12.7703 11.9644 9.50179 14.1707C9.02287 14.4996 8.58909 14.6598 8.20043 14.6514C7.77197 14.6422 6.94778 14.4091 6.33508 14.21C5.58358 13.9657 4.9863 13.8365 5.03831 13.4217C5.0654 13.2056 5.36298 12.9846 5.93104 12.7587Z" fill="white"/>
</g>
<defs>
<clipPath id="clip0_1393_2969">
<rect width="24" height="24" fill="white" transform="translate(0.5 0.885742)"/>
</clipPath>
</defs>
</svg>
