<svg width="25" height="25" viewBox="0 0 25 25" fill="none" xmlns="http://www.w3.org/2000/svg">
<g clip-path="url(#clip0_1428_1058)">
<path d="M24.0216 7.07164C23.8859 6.56105 23.6185 6.09506 23.2462 5.7203C22.8738 5.34553 22.4095 5.07514 21.8998 4.93619C20.0234 4.43164 12.5234 4.43164 12.5234 4.43164C12.5234 4.43164 5.02344 4.43164 3.14707 4.93619C2.63737 5.07514 2.1731 5.34553 1.80073 5.7203C1.42835 6.09506 1.16094 6.56105 1.02526 7.07164C0.523438 8.95619 0.523438 12.8862 0.523438 12.8862C0.523438 12.8862 0.523438 16.8162 1.02526 18.7007C1.16094 19.2113 1.42835 19.6773 1.80073 20.0521C2.1731 20.4268 2.63737 20.6972 3.14707 20.8362C5.02344 21.3407 12.5234 21.3407 12.5234 21.3407C12.5234 21.3407 20.0234 21.3407 21.8998 20.8362C22.4095 20.6972 22.8738 20.4268 23.2462 20.0521C23.6185 19.6773 23.8859 19.2113 24.0216 18.7007C24.5234 16.8162 24.5234 12.8862 24.5234 12.8862C24.5234 12.8862 24.5234 8.95619 24.0216 7.07164Z" fill="#373737"/>
<path d="M10.0703 16.4547V9.31738L16.343 12.886L10.0703 16.4547Z" fill="#FEFEFE"/>
</g>
<defs>
<clipPath id="clip0_1428_1058">
<rect width="24" height="24" fill="white" transform="translate(0.5 0.885742)"/>
</clipPath>
</defs>
</svg>
